# xmcd
#
# Track frame offsets: 
#        150
#        17200
#        31261
#        53172
#        73157
#        89381
#        99196
#        126281
#        147567
#        164627
#        176225
#        188197
#
# Disc length: 2771 seconds
#
# Revision: 0
# Processed by: cddbd v1.5.2PL0 Copyright (c) Steve Scherf et al.
# Submitted via: ExactAudioCopy v0.99pb3
#
DISCID=ae0ad10c
DTITLE=Leonard Cohen - Dear Heather
DYEAR=2004
DGENRE=Folk
TTITLE0=Go No More A-Roving
TTITLE1=Because Of
TTITLE2=The Letters
TTITLE3=Undertow
TTITLE4=Morning Glory
TTITLE5=On That Day
TTITLE6=Villanelle For Our Time
TTITLE7=There For You
TTITLE8=Dear Heather
TTITLE9=Nightingale
TTITLE10=To A Teacher
TTITLE11=The Faith
EXTD=
EXTT0=
EXTT1=
EXTT2=
EXTT3=
EXTT4=
EXTT5=
EXTT6=
EXTT7=
EXTT8=
EXTT9=
EXTT10=
EXTT11=
PLAYORDER=
